<!-- Pointer by NeueDeutsche from <a href="https://thenounproject.com/browse/icons/term/pointer/" target="_blank" title="Pointer Icons">Noun Project</a> (CC BY 3.0) -->
<svg xmlns="http://www.w3.org/2000/svg" xmlns:xlink="http://www.w3.org/1999/xlink" version="1.1" x="0px" y="0px" viewBox="17 -18 100 125" enable-background="new 17 -18 100 100" xml:space="preserve"><path d="M66.9,31.4L87,81.8l9.7-20.6l19.2-9.7L66.9,31.4z M82,39.7c-1.4-1.4-1.4-1.4-2.7,0l-4.1,4.1c-2.8,1.3-2.8,1.3,0,4.1  L108,80.5c2.1,2.1,2,1.8,3.8,0l3.9-3.9c1.9-1.9,2.1-1.8,0-3.8L82,39.7z M104.8-18H101c-3.8,0-3.8,0-3.8,3.8v3.8c0,3.8,0,3.8,3.8,3.8  h3.8c3.8,0,3.8,0,3.8-3.8v-3.8C108.6-18,108.6-18,104.8-18z M84.7-18h-3.8c-3.8,0-3.8,0-3.8,3.8v3.8c0,3.8,0,3.8,3.8,3.8h3.8  c3.8,0,3.8,0,3.8-3.8v-3.8C88.6-18,88.6-18,84.7-18z M104.8,2.1H101c-3.8,0-3.8,0-3.8,3.8v3.8c0,3.8,0,3.8,3.8,3.8h3.8  c3.8,0,3.8,0,3.8-3.8V5.9C108.6,2.1,108.6,2.1,104.8,2.1z M64.6-18h-3.8c-3.8,0-3.8,0-3.8,3.8v3.8c0,3.8,0,3.8,3.8,3.8h3.8  c3.8,0,3.8,0,3.8-3.8v-3.8C68.4-18,68.4-18,64.6-18z M104.8,22.2H101c-3.8,0-3.8,0-3.8,3.8v3.8c0,3.8,0,3.8,3.8,3.8h3.8  c3.8,0,3.8,0,3.8-3.8v-3.8C108.6,22.2,108.6,22.2,104.8,22.2z M44.5-18h-3.8c-3.8,0-3.8,0-3.8,3.8v3.8c0,3.8,0,3.8,3.8,3.8h3.8  c3.8,0,3.8,0,3.8-3.8v-3.8C48.3-18,48.3-18,44.5-18z M24.4-18h-3.8c-3.8,0-3.8,0-3.8,3.8v3.8c0,3.8,0,3.8,3.8,3.8h3.8  c3.8,0,3.8,0,3.8-3.8v-3.8C28.2-18,28.2-18,24.4-18z M24.4,2.1h-3.8c-3.8,0-3.8,0-3.8,3.8v3.8c0,3.8,0,3.8,3.8,3.8h3.8  c3.8,0,3.8,0,3.8-3.8V5.9C28.2,2.1,28.2,2.1,24.4,2.1z M64.6,62.5h-3.8c-3.8,0-3.8,0-3.8,3.8v3.8c0,3.8,0,3.8,3.8,3.8h3.8  c3.8,0,3.8,0,3.8-3.8v-3.8C68.4,62.5,68.4,62.5,64.6,62.5z M24.4,22.2h-3.8c-3.8,0-3.8,0-3.8,3.8v3.8c0,3.8,0,3.8,3.8,3.8h3.8  c3.8,0,3.8,0,3.8-3.8v-3.8C28.2,22.2,28.2,22.2,24.4,22.2z M44.5,62.5h-3.8c-3.8,0-3.8,0-3.8,3.8v3.8c0,3.8,0,3.8,3.8,3.8h3.8  c3.8,0,3.8,0,3.8-3.8v-3.8C48.3,62.5,48.3,62.5,44.5,62.5z M24.4,42.3h-3.8c-3.8,0-3.8,0-3.8,3.9V50c0,3.8,0,3.8,3.8,3.8h3.8  c3.8,0,3.8,0,3.8-3.8v-3.8C28.2,42.3,28.2,42.3,24.4,42.3z M24.4,62.5h-3.8c-3.8,0-3.8,0-3.8,3.8v3.8c0,3.8,0,3.8,3.8,3.8h3.8  c3.8,0,3.8,0,3.8-3.8v-3.8C28.2,62.5,28.2,62.5,24.4,62.5z"/></svg>
